<svg xmlns="http://www.w3.org/2000/svg" width="600" height="240" viewBox="0 0 600 240" role="img"><title>穴のある4つの防護層。穴が一直線に並んだところで事故が起きる</title><rect width="600" height="240" fill="#ffffff"/><defs><marker id="sc-arrow" viewBox="0 0 10 10" refX="9" refY="5" markerWidth="7" markerHeight="7" orient="auto"><path d="M0,0 L10,5 L0,10 z" fill="#cf3a1c"></path></marker></defs><g><rect x="80" y="42" width="60" height="150" rx="6" fill="#f6f8fa" stroke="#59636e" stroke-opacity="0.5"></rect><ellipse cx="110" cy="126" rx="15" ry="11" fill="#ffffff" stroke="#a3260f" stroke-width="1.5"></ellipse><ellipse cx="110" cy="72" rx="13" ry="9" fill="#ffffff" stroke="#59636e" stroke-opacity="0.5"></ellipse><ellipse cx="110" cy="180" rx="13" ry="9" fill="#ffffff" stroke="#59636e" stroke-opacity="0.5"></ellipse><text x="110" y="210" text-anchor="middle" font-family="'Atkinson Hyperlegible Next', system-ui, -apple-system, 'Segoe UI', Helvetica, Arial, sans-serif" font-size="12" fill="#59636e">レビュー</text></g><g><rect x="200" y="42" width="60" height="150" rx="6" fill="#f6f8fa" stroke="#59636e" stroke-opacity="0.5"></rect><ellipse cx="230" cy="126" rx="15" ry="11" fill="#ffffff" stroke="#a3260f" stroke-width="1.5"></ellipse><ellipse cx="230" cy="178" rx="13" ry="9" fill="#ffffff" stroke="#59636e" stroke-opacity="0.5"></ellipse><ellipse cx="230" cy="96" rx="13" ry="9" fill="#ffffff" stroke="#59636e" stroke-opacity="0.5"></ellipse><text x="230" y="210" text-anchor="middle" font-family="'Atkinson Hyperlegible Next', system-ui, -apple-system, 'Segoe UI', Helvetica, Arial, sans-serif" font-size="12" fill="#59636e">テスト</text></g><g><rect x="320" y="42" width="60" height="150" rx="6" fill="#f6f8fa" stroke="#59636e" stroke-opacity="0.5"></rect><ellipse cx="350" cy="126" rx="15" ry="11" fill="#ffffff" stroke="#a3260f" stroke-width="1.5"></ellipse><ellipse cx="350" cy="72" rx="13" ry="9" fill="#ffffff" stroke="#59636e" stroke-opacity="0.5"></ellipse><ellipse cx="350" cy="176" rx="13" ry="9" fill="#ffffff" stroke="#59636e" stroke-opacity="0.5"></ellipse><text x="350" y="210" text-anchor="middle" font-family="'Atkinson Hyperlegible Next', system-ui, -apple-system, 'Segoe UI', Helvetica, Arial, sans-serif" font-size="12" fill="#59636e">アラート</text></g><g><rect x="440" y="42" width="60" height="150" rx="6" fill="#f6f8fa" stroke="#59636e" stroke-opacity="0.5"></rect><ellipse cx="470" cy="126" rx="15" ry="11" fill="#ffffff" stroke="#a3260f" stroke-width="1.5"></ellipse><ellipse cx="470" cy="98" rx="13" ry="9" fill="#ffffff" stroke="#59636e" stroke-opacity="0.5"></ellipse><ellipse cx="470" cy="72" rx="13" ry="9" fill="#ffffff" stroke="#59636e" stroke-opacity="0.5"></ellipse><text x="470" y="210" text-anchor="middle" font-family="'Atkinson Hyperlegible Next', system-ui, -apple-system, 'Segoe UI', Helvetica, Arial, sans-serif" font-size="12" fill="#59636e">ロールバック</text></g><line x1="24" y1="126" x2="556" y2="126" stroke="#cf3a1c" stroke-width="2" marker-end="url(#sc-arrow)"></line><text x="24" y="114" font-family="'Atkinson Hyperlegible Next', system-ui, -apple-system, 'Segoe UI', Helvetica, Arial, sans-serif" font-size="13" fill="#cf3a1c">危険</text><text x="556" y="114" text-anchor="end" font-family="'Atkinson Hyperlegible Next', system-ui, -apple-system, 'Segoe UI', Helvetica, Arial, sans-serif" font-size="13" fill="#cf3a1c">事故</text><line x1="24" y1="72" x2="230" y2="72" stroke="#59636e" stroke-width="1.5" stroke-dasharray="4 3"></line><line x1="223" y1="65" x2="237" y2="79" stroke="#59636e" stroke-width="2"></line><line x1="223" y1="79" x2="237" y2="65" stroke="#59636e" stroke-width="2"></line><text x="24" y="32" font-family="'Atkinson Hyperlegible Next', system-ui, -apple-system, 'Segoe UI', Helvetica, Arial, sans-serif" font-size="12" fill="#59636e">通常はこうなる——どこか一層に穴がない</text></svg>
