<svg xmlns="http://www.w3.org/2000/svg" width="600" height="230" viewBox="0 0 600 230" role="img"><title>1リクエストが100枚の葉に扇状展開したとき、少なくとも1枚が遅い確率</title><rect width="600" height="230" fill="#ffffff"/><g><line x1="106" y1="110" x2="250" y2="31" stroke="#59636e" stroke-opacity="0.35" stroke-width="1"></line><rect x="250" y="26" width="34" height="10" rx="2" fill="#59636e" fill-opacity="0.35"></rect></g><g><line x1="106" y1="110" x2="250" y2="46" stroke="#59636e" stroke-opacity="0.35" stroke-width="1"></line><rect x="250" y="41" width="34" height="10" rx="2" fill="#59636e" fill-opacity="0.35"></rect></g><g><line x1="106" y1="110" x2="250" y2="61" stroke="#59636e" stroke-opacity="0.35" stroke-width="1"></line><rect x="250" y="56" width="34" height="10" rx="2" fill="#59636e" fill-opacity="0.35"></rect></g><g><line x1="106" y1="110" x2="250" y2="76" stroke="#59636e" stroke-opacity="0.35" stroke-width="1"></line><rect x="250" y="71" width="34" height="10" rx="2" fill="#59636e" fill-opacity="0.35"></rect></g><g><line x1="106" y1="110" x2="250" y2="91" stroke="#59636e" stroke-opacity="0.35" stroke-width="1"></line><rect x="250" y="86" width="34" height="10" rx="2" fill="#59636e" fill-opacity="0.35"></rect></g><g><line x1="106" y1="110" x2="250" y2="106" stroke="#59636e" stroke-opacity="0.35" stroke-width="1"></line><rect x="250" y="101" width="34" height="10" rx="2" fill="#59636e" fill-opacity="0.35"></rect></g><g><line x1="106" y1="110" x2="250" y2="121" stroke="#59636e" stroke-opacity="0.35" stroke-width="1"></line><rect x="250" y="116" width="34" height="10" rx="2" fill="#59636e" fill-opacity="0.35"></rect></g><g><line x1="106" y1="110" x2="250" y2="136" stroke="#cf3a1c" stroke-opacity="1" stroke-width="1.6"></line><rect x="250" y="131" width="54" height="10" rx="2" fill="#a3260f" fill-opacity="0.9"></rect></g><g><line x1="106" y1="110" x2="250" y2="151" stroke="#59636e" stroke-opacity="0.35" stroke-width="1"></line><rect x="250" y="146" width="34" height="10" rx="2" fill="#59636e" fill-opacity="0.35"></rect></g><g><line x1="106" y1="110" x2="250" y2="166" stroke="#59636e" stroke-opacity="0.35" stroke-width="1"></line><rect x="250" y="161" width="34" height="10" rx="2" fill="#59636e" fill-opacity="0.35"></rect></g><g><line x1="106" y1="110" x2="250" y2="181" stroke="#59636e" stroke-opacity="0.35" stroke-width="1"></line><rect x="250" y="176" width="34" height="10" rx="2" fill="#59636e" fill-opacity="0.35"></rect></g><g><line x1="106" y1="110" x2="250" y2="196" stroke="#59636e" stroke-opacity="0.35" stroke-width="1"></line><rect x="250" y="191" width="34" height="10" rx="2" fill="#59636e" fill-opacity="0.35"></rect></g><rect x="48" y="96" width="58" height="28" rx="4" fill="#f6f8fa" stroke="#59636e" stroke-opacity="0.6"></rect><text x="77" y="114" text-anchor="middle" font-family="'Atkinson Hyperlegible Next', system-ui, -apple-system, 'Segoe UI', Helvetica, Arial, sans-serif" font-size="12" fill="#1f2328">リクエスト</text><text x="250" y="18" font-family="'Atkinson Hyperlegible Next', system-ui, -apple-system, 'Segoe UI', Helvetica, Arial, sans-serif" font-size="12" fill="#59636e">葉</text><text x="310" y="140" font-family="'Atkinson Hyperlegible Next', system-ui, -apple-system, 'Segoe UI', Helvetica, Arial, sans-serif" font-size="12" fill="#cf3a1c">遅い葉</text><text x="250" y="222" font-family="'Atkinson Hyperlegible Next', system-ui, -apple-system, 'Segoe UI', Helvetica, Arial, sans-serif" font-size="12" fill="#59636e">各葉は独立に1%の確率で遅い</text><g><text x="400" y="54" font-family="'Atkinson Hyperlegible Next', system-ui, -apple-system, 'Segoe UI', Helvetica, Arial, sans-serif" font-size="12" fill="#59636e">扇状展開</text><text x="580" y="54" text-anchor="end" font-family="'Atkinson Hyperlegible Next', system-ui, -apple-system, 'Segoe UI', Helvetica, Arial, sans-serif" font-size="12" fill="#59636e">P(1枚以上が遅い)</text><line x1="400" y1="62" x2="580" y2="62" stroke="#59636e" stroke-opacity="0.4"></line></g><g><text x="400" y="80" font-family="'Atkinson Hyperlegible Next', system-ui, -apple-system, 'Segoe UI', Helvetica, Arial, sans-serif" font-size="13" fill="#1f2328">1枚</text><text x="580" y="80" text-anchor="end" font-family="'Atkinson Hyperlegible Next', system-ui, -apple-system, 'Segoe UI', Helvetica, Arial, sans-serif" font-size="13" fill="#1f2328">1%</text></g><g><text x="400" y="106" font-family="'Atkinson Hyperlegible Next', system-ui, -apple-system, 'Segoe UI', Helvetica, Arial, sans-serif" font-size="13" fill="#1f2328">10枚</text><text x="580" y="106" text-anchor="end" font-family="'Atkinson Hyperlegible Next', system-ui, -apple-system, 'Segoe UI', Helvetica, Arial, sans-serif" font-size="13" fill="#1f2328">10%</text></g><g><text x="400" y="132" font-family="'Atkinson Hyperlegible Next', system-ui, -apple-system, 'Segoe UI', Helvetica, Arial, sans-serif" font-size="13" fill="#cf3a1c">100枚</text><text x="580" y="132" text-anchor="end" font-family="'Atkinson Hyperlegible Next', system-ui, -apple-system, 'Segoe UI', Helvetica, Arial, sans-serif" font-size="13" fill="#cf3a1c">63%</text></g></svg>
